<?xml version="1.0" encoding="utf-8"?>
<!-- Generator: Adobe Illustrator 25.3.1, SVG Export Plug-In . SVG Version: 6.00 Build 0)  -->
<svg version="1.1" id="Camada_1" xmlns="http://www.w3.org/2000/svg" xmlns:xlink="http://www.w3.org/1999/xlink" x="0px" y="0px"
	 viewBox="0 0 100 76" style="enable-background:new 0 0 100 76;" xml:space="preserve">
<style type="text/css">
	.st0{fill:#F23535;}
	.st1{fill:#FFFFFF;}
</style>
<g>
	<g>
		<path class="st0" d="M90.9,61H9.1c-4.9,0-8.8-4-8.8-8.8V9.8C0.3,5,4.2,1,9.1,1h81.8c4.9,0,8.8,4,8.8,8.8v42.3
			C99.7,57,95.8,61,90.9,61z"/>
	</g>
	<path class="st0" d="M65.5,62.1L53.6,74c-2,2-5.3,2-7.3,0L34.5,62.1c-2-2-2-5.3,0-7.3L46.4,43c2-2,5.3-2,7.3,0l11.8,11.8
		C67.5,56.9,67.5,60.1,65.5,62.1z"/>
	<g>
		<path class="st1" d="M13.5,17.2v2.2h3.9v1.6h-3.9V24h-1.9v-8.4h6.3v1.6H13.5z"/>
		<path class="st1" d="M24.4,22.2h-3.9L19.7,24h-2l3.7-8.4h1.9l3.8,8.4h-2L24.4,22.2z M23.8,20.7l-1.3-3.2l-1.3,3.2H23.8z"/>
		<path class="st1" d="M28,15.6H30v6.8h4.2V24H28V15.6z"/>
		<path class="st1" d="M41.8,22.4V24h-6.5v-8.4h6.3v1.6h-4.4V19h3.9v1.5h-3.9v1.9H41.8z"/>
		<path class="st1" d="M46.2,19.8c0-2.5,1.9-4.3,4.6-4.3c1.5,0,2.7,0.5,3.5,1.5L53,18.1c-0.6-0.6-1.3-1-2.1-1
			c-1.6,0-2.7,1.1-2.7,2.7s1.1,2.7,2.7,2.7c0.8,0,1.5-0.3,2.1-1l1.2,1.2c-0.8,1-2,1.5-3.5,1.5C48.2,24.1,46.2,22.3,46.2,19.8z"/>
		<path class="st1" d="M54.8,19.8c0-2.5,1.9-4.3,4.6-4.3c2.6,0,4.6,1.8,4.6,4.3c0,2.5-2,4.3-4.6,4.3C56.8,24.1,54.8,22.3,54.8,19.8z
			 M62,19.8c0-1.6-1.1-2.7-2.6-2.7s-2.6,1.1-2.6,2.7s1.1,2.7,2.6,2.7S62,21.4,62,19.8z"/>
		<path class="st1" d="M73.1,24l0-5l-2.5,4.1h-0.9l-2.5-4V24h-1.8v-8.4h1.6l3.1,5.2l3.1-5.2h1.6l0,8.4H73.1z"/>
		<path class="st1" d="M79.8,19.8c0-2.5,1.9-4.3,4.6-4.3c2.6,0,4.6,1.8,4.6,4.3c0,2.5-2,4.3-4.6,4.3C81.8,24.1,79.8,22.3,79.8,19.8z
			 M87,19.8c0-1.6-1.1-2.7-2.6-2.7s-2.6,1.1-2.6,2.7s1.1,2.7,2.6,2.7S87,21.4,87,19.8z"/>
		<path class="st1" d="M9.6,30.8c0-2.5,1.9-4.3,4.6-4.3c1.5,0,2.7,0.5,3.5,1.5l-1.2,1.2c-0.6-0.6-1.3-1-2.1-1
			c-1.6,0-2.7,1.1-2.7,2.7s1.1,2.7,2.7,2.7c0.8,0,1.5-0.3,2.1-1l1.2,1.2c-0.8,1-2,1.5-3.5,1.5C11.6,35.1,9.6,33.3,9.6,30.8z"/>
		<path class="st1" d="M18.3,30.8c0-2.5,1.9-4.3,4.6-4.3c2.6,0,4.6,1.8,4.6,4.3c0,2.5-2,4.3-4.6,4.3C20.2,35.1,18.3,33.3,18.3,30.8z
			 M25.5,30.8c0-1.6-1.1-2.7-2.6-2.7c-1.5,0-2.6,1.1-2.6,2.7s1.1,2.7,2.6,2.7C24.3,33.5,25.5,32.4,25.5,30.8z"/>
		<path class="st1" d="M36.6,26.6V35H35l-4.2-5.1V35h-1.9v-8.4h1.6l4.2,5.1v-5.1H36.6z"/>
		<path class="st1" d="M37.9,34.2l0.7-1.5c0.7,0.5,1.8,0.9,2.8,0.9c1.2,0,1.6-0.4,1.6-0.9c0-1.6-4.9-0.5-4.9-3.6
			c0-1.4,1.2-2.6,3.5-2.6c1.1,0,2.1,0.3,2.9,0.7L44,28.7c-0.8-0.4-1.6-0.7-2.3-0.7c-1.2,0-1.6,0.4-1.6,1c0,1.5,4.9,0.5,4.9,3.6
			c0,1.4-1.2,2.6-3.6,2.6C40,35.1,38.7,34.7,37.9,34.2z"/>
		<path class="st1" d="M46.2,31.3v-4.7h1.9v4.6c0,1.6,0.7,2.3,1.9,2.3c1.2,0,1.9-0.7,1.9-2.3v-4.6h1.9v4.7c0,2.5-1.4,3.8-3.8,3.8
			C47.6,35.1,46.2,33.8,46.2,31.3z"/>
		<path class="st1" d="M55.7,26.6h1.9v6.8h4.2V35h-6.2V26.6z"/>
		<path class="st1" d="M63.9,28.2h-2.7v-1.6h7.3v1.6h-2.7V35h-1.9V28.2z"/>
		<path class="st1" d="M69,30.8c0-2.5,1.9-4.3,4.6-4.3c2.6,0,4.6,1.8,4.6,4.3c0,2.5-2,4.3-4.6,4.3C70.9,35.1,69,33.3,69,30.8z
			 M76.2,30.8c0-1.6-1.1-2.7-2.6-2.7s-2.6,1.1-2.6,2.7s1.1,2.7,2.6,2.7S76.2,32.4,76.2,30.8z"/>
		<path class="st1" d="M85,35l-1.6-2.3h-0.1h-1.7V35h-1.9v-8.4h3.6c2.2,0,3.6,1.2,3.6,3c0,1.3-0.6,2.2-1.7,2.7L87,35H85z M83.1,28.2
			h-1.6v2.9h1.6c1.2,0,1.8-0.6,1.8-1.5C84.9,28.7,84.3,28.2,83.1,28.2z"/>
		<path class="st1" d="M33.3,44.2h-3.9L28.7,46h-2l3.7-8.4h1.9l3.8,8.4h-2L33.3,44.2z M32.7,42.7l-1.3-3.2L30,42.7H32.7z"/>
		<path class="st1" d="M42.5,41.7h1.8v3.4c-0.9,0.7-2.2,1.1-3.4,1.1c-2.6,0-4.6-1.8-4.6-4.3c0-2.5,1.9-4.3,4.6-4.3
			c1.5,0,2.7,0.5,3.5,1.5l-1.2,1.2c-0.6-0.6-1.3-0.9-2.2-0.9c-1.6,0-2.7,1.1-2.7,2.7c0,1.6,1.1,2.7,2.7,2.7c0.5,0,1-0.1,1.5-0.4
			V41.7z"/>
		<path class="st1" d="M45.6,41.8c0-2.5,1.9-4.3,4.6-4.3c2.6,0,4.6,1.8,4.6,4.3s-2,4.3-4.6,4.3C47.5,46.1,45.6,44.3,45.6,41.8z
			 M52.8,41.8c0-1.6-1.1-2.7-2.6-2.7c-1.5,0-2.6,1.1-2.6,2.7c0,1.6,1.1,2.7,2.6,2.7C51.7,44.5,52.8,43.4,52.8,41.8z"/>
		<path class="st1" d="M61.6,46l-1.6-2.3h-0.1h-1.7V46h-1.9v-8.4h3.6c2.2,0,3.6,1.2,3.6,3c0,1.3-0.6,2.2-1.7,2.7l1.9,2.7H61.6z
			 M59.7,39.2h-1.6v2.9h1.6c1.2,0,1.8-0.6,1.8-1.5C61.5,39.7,60.9,39.2,59.7,39.2z"/>
		<path class="st1" d="M70.6,44.2h-3.9L65.9,46h-2l3.7-8.4h1.9l3.8,8.4h-2L70.6,44.2z M70,42.7l-1.3-3.2l-1.3,3.2H70z"/>
	</g>
</g>
</svg>
